<svg height="512pt" viewBox="0 -62 512.001 512" width="512pt" xmlns="http://www.w3.org/2000/svg"><path d="m263.703125 24.640625c-12.808594 0-23.226563 10.421875-23.226563 23.230469s10.417969 23.230468 23.226563 23.230468c12.8125 0 23.230469-10.421874 23.230469-23.230468s-10.417969-23.230469-23.230469-23.230469zm0 31.457031c-4.535156 0-8.226563-3.691406-8.226563-8.226562 0-4.539063 3.691407-8.230469 8.226563-8.230469 4.539063 0 8.230469 3.691406 8.230469 8.230469 0 4.535156-3.691406 8.226562-8.230469 8.226562zm0 0"/><path d="m359.429688 170.910156c-12.808594 0-23.230469 10.421875-23.230469 23.230469s10.421875 23.226563 23.230469 23.226563c12.808593 0 23.230468-10.417969 23.230468-23.226563s-10.421875-23.230469-23.230468-23.230469zm0 31.457032c-4.539063 0-8.226563-3.691407-8.226563-8.230469 0-4.535157 3.6875-8.226563 8.226563-8.226563 4.539062 0 8.230468 3.691406 8.230468 8.226563 0 4.539062-3.691406 8.230469-8.230468 8.230469zm0 0"/><path d="m488.769531 170.910156h-87.503906c-8.183594-14.683594-23.863281-24.640625-41.835937-24.640625-17.972657 0-33.652344 9.957031-41.835938 24.640625h-294.363281c-12.808594 0-23.230469 10.421875-23.230469 23.226563 0 12.808593 10.421875 23.230469 23.230469 23.230469h294.363281c8.183594 14.683593 23.867188 24.640624 41.835938 24.640624s33.652343-9.957031 41.835937-24.640624h87.503906c12.808594 0 23.230469-10.421876 23.230469-23.230469 0-12.808594-10.421875-23.226563-23.230469-23.226563zm-176.507812 31.457032h-289.03125c-4.539063 0-8.230469-3.691407-8.230469-8.230469 0-4.535157 3.691406-8.226563 8.230469-8.226563h289.03125c-.871094 5.039063-.964844 10.859375 0 16.457032zm47.167969 24.640624c-18.125 0-32.867188-14.746093-32.867188-32.871093s14.742188-32.867188 32.867188-32.867188 32.871093 14.742188 32.871093 32.867188c0 18.121093-14.738281 32.871093-32.871093 32.871093zm129.339843-24.640624h-82.171875c.90625-5.234376.945313-10.988282 0-16.457032h82.171875c4.539063 0 8.230469 3.691406 8.230469 8.230469 0 4.535156-3.691406 8.226563-8.230469 8.226563zm0 0"/><path d="m134.820312 340.40625c0 12.808594 10.421876 23.230469 23.230469 23.230469 12.808594 0 23.230469-10.421875 23.230469-23.230469s-10.421875-23.230469-23.230469-23.230469c-12.808593 0-23.230469 10.421875-23.230469 23.230469zm23.230469-8.226562c4.539063 0 8.230469 3.691406 8.230469 8.226562 0 4.539062-3.691406 8.230469-8.230469 8.230469-4.539062 0-8.230469-3.691407-8.230469-8.230469 0-4.535156 3.695313-8.226562 8.230469-8.226562zm0 0"/><path d="m488.769531 317.175781h-288.90625c-4.828125-8.671875-12.3125-15.839843-21.625-20.175781-3.753906-1.746094-8.21875-.121094-9.96875 3.632812-1.746093 3.753907-.121093 8.214844 3.632813 9.964844 13.75 6.40625 20.050781 21.007813 18.976562 31.503906-.886718 17.339844-15.269531 31.175782-32.828125 31.175782-23.625 0-39.335937-24.199219-30.28125-45.683594 2.992188-7.09375 8.4375-13.023438 15.644531-16.617188 3.707032-1.847656 5.214844-6.351562 3.367188-10.058593s-6.347656-5.214844-10.0625-3.367188c-8.90625 4.441407-15.96875 11.328125-20.566406 19.625h-92.921875c-12.808594 0-23.230469 10.421875-23.230469 23.230469s10.421875 23.230469 23.230469 23.230469h92.984375c8.183594 14.683593 23.867187 24.640625 41.835937 24.640625 17.972657 0 33.652344-9.957032 41.835938-24.640625h288.882812c12.808594 0 23.230469-10.421875 23.230469-23.230469s-10.421875-23.230469-23.230469-23.230469zm-377.886719 31.457031h-87.652343c-4.539063 0-8.230469-3.6875-8.230469-8.226562s3.691406-8.230469 8.230469-8.230469h87.652343c-.898437 5.21875-.96875 10.847657 0 16.457031zm377.886719 0h-283.550781c.859375-4.945312.980469-10.789062 0-16.457031h283.550781c4.539063 0 8.230469 3.691407 8.230469 8.230469s-3.691406 8.226562-8.230469 8.226562zm0 0"/><path d="m488.769531 24.640625h-183.226562c-8.183594-14.679687-23.867188-24.640625-41.835938-24.640625-17.972656 0-33.652343 9.960938-41.835937 24.640625h-198.640625c-12.808594 0-23.230469 10.421875-23.230469 23.230469s10.421875 23.230468 23.230469 23.230468h198.640625c8.183594 14.679688 23.863281 24.640626 41.835937 24.640626 17.96875 0 33.652344-9.960938 41.835938-24.640626h61.207031c4.140625 0 7.5-3.359374 7.5-7.503906 0-4.140625-3.359375-7.5-7.5-7.5h-55.875c.957031-5.542968.878906-11.363281 0-16.453125h177.898438c4.535156 0 8.226562 3.691407 8.226562 8.226563 0 4.539062-3.691406 8.230468-8.226562 8.230468h-87.023438c-4.144531 0-7.5 3.355469-7.5 7.5 0 4.140626 3.355469 7.5 7.5 7.5h87.023438c12.808593 0 23.226562-10.421874 23.226562-23.230468s-10.421875-23.230469-23.230469-23.230469zm-272.230469 31.457031h-193.308593c-4.539063 0-8.230469-3.691406-8.230469-8.226562 0-4.539063 3.691406-8.230469 8.230469-8.230469h193.308593c-.898437 5.203125-.941406 11.023437 0 16.457031zm47.164063 24.644532c-18.121094 0-32.867187-14.746094-32.867187-32.871094s14.746093-32.871094 32.867187-32.871094c18.125 0 32.871094 14.746094 32.871094 32.871094s-14.746094 32.871094-32.871094 32.871094zm0 0"/></svg>